<svg width="512" height="512" xmlns="http://www.w3.org/2000/svg" xmlns:xlink="http://www.w3.org/1999/xlink" xml:space="preserve" version="1.1">
 <g>
  <title>Layer 1</title>
  <g stroke-width="0" id="svg_1">
   <g id="svg_2">
    <path stroke-miterlimit="10" stroke="#000000" fill="#FFFFFF" d="m465.5,512l-419,0c-25.6,0 -46.5,-20.9 -46.5,-46.5l0,-419c0,-25.6 20.9,-46.5 46.5,-46.5l418.9,0c25.7,0 46.6,20.9 46.6,46.5l0,418.9c0,25.7 -20.9,46.6 -46.5,46.6z" class="st0" id="SVGID_1_"/>
   </g>
   <g id="svg_3">
    <defs>
     <path d="m465.5,512l-419,0c-25.6,0 -46.5,-20.9 -46.5,-46.5l0,-419c0,-25.6 20.9,-46.5 46.5,-46.5l418.9,0c25.7,0 46.6,20.9 46.6,46.5l0,418.9c0,25.7 -20.9,46.6 -46.5,46.6z" id="SVGID_00000126307641832431429560000003737737991190451072_"/>
    </defs>
    <use id="svg_4" fill="#FFFFFF" xlink:href="#SVGID_00000126307641832431429560000003737737991190451072_"/>
    <clipPath id="SVGID_00000156579993479323011170000008153380476636873109_">
     <use id="svg_5" xlink:href="#SVGID_00000126307641832431429560000003737737991190451072_"/>
    </clipPath>
    <rect id="svg_6" stroke-miterlimit="10" stroke="#000000" fill="#FFFFFF" clip-path="url(#SVGID_00000156579993479323011170000008153380476636873109_)" height="516.7" width="516.7" y="0" x="-4.7"/>
    <use id="svg_7" stroke-miterlimit="10" stroke="#000000" fill="none" xlink:href="#SVGID_00000126307641832431429560000003737737991190451072_"/>
   </g>
  </g>
  <path id="svg_8" fill="#161616" d="m348.2,158.2c-9.3,-16 -22,-28.9 -37.8,-38.2l0,0c-15.8,-9.3 -34.1,-14 -54.1,-14c-19.8,0 -37.9,4.7 -53.8,14c-15.8,9.3 -28.5,22.2 -37.7,38.2c-9.2,16 -13.9,34.3 -14.2,54.4l0,166.4c0,6.8 2.3,12.5 6.9,17.1c4.5,4.5 10.3,6.9 17.1,6.9c7.1,0 12.9,-2.3 17.3,-6.9l122.2,-91.1c14.8,-9.3 26.7,-22.1 35.2,-38.1c8.5,-15.9 12.8,-34.1 12.8,-54.1c0.2,-20.2 -4.6,-38.5 -13.9,-54.6zm-40.3,86.7c-5.2,9.5 -12.4,17 -21.3,22.5c-8.8,5.4 -19,8.1 -30.4,8.1c-11.1,0 -21.3,-2.7 -30.2,-8.2c-9,-5.4 -16.1,-13 -21.2,-22.4c-5.1,-9.5 -7.7,-20.3 -7.7,-32.3c0,-12.2 2.6,-23.1 7.7,-32.6c5.1,-9.4 12.2,-17 21.2,-22.4c9,-5.4 19.1,-8.2 30.2,-8.2c11.3,0 21.6,2.7 30.4,8.1c8.9,5.4 16,13 21.3,22.5c5.2,9.5 7.9,20.5 7.9,32.6c0,12 -2.7,22.8 -7.9,32.3z" class="st2"/>
 </g>
</svg>